<svg width="20" height="20" viewBox="0 0 20 20" fill="none" xmlns="http://www.w3.org/2000/svg">
<path d="M19.268 2.19766L17.8028 0.732422C17.3145 0.244141 16.6746 0 16.0348 0C15.395 0 14.7551 0.244141 14.2672 0.732031L11.3575 3.6418L10 4.99922L0.501992 14.4969L0.00589837 18.9586C-0.0566016 19.5203 0.385976 20 0.935586 20C0.970352 20 1.00551 19.998 1.04066 19.9941L5.49926 19.5016L15.0008 10L16.3579 8.64297L19.2676 5.7332C20.2442 4.75664 20.2442 3.17383 19.268 2.19766ZM4.63871 17.7105L1.99887 18.002L2.29301 15.3578L11.3258 6.325L12.5375 5.11328L14.8868 7.4625L13.675 8.67422L4.63871 17.7105ZM17.9418 4.40703L16.2121 6.13672L13.8633 3.7875L15.593 2.05781C15.7524 1.89844 15.9383 1.87461 16.0348 1.87461C16.1313 1.87461 16.3176 1.89844 16.4766 2.05781L17.9418 3.52305C18.1856 3.76719 18.1856 4.16367 17.9418 4.40703Z" fill="white"/>
</svg>
