<svg width="27" height="27" viewBox="0 0 27 27" fill="none" xmlns="http://www.w3.org/2000/svg">
<rect width="26.44" height="26.44" rx="3.07028" fill="#E6F0FF"/>
<path d="M11.5687 16.8764C11.5689 17.0063 11.6073 17.1336 11.6794 17.2418L12.0324 17.7725C12.0927 17.8632 12.1745 17.9376 12.2706 17.989C12.3666 18.0405 12.4738 18.0674 12.5827 18.0674H13.8574C13.9664 18.0674 14.0736 18.0405 14.1696 17.989C14.2656 17.9376 14.3474 17.8632 14.4077 17.7725L14.7607 17.2418C14.8328 17.1335 14.8713 17.0064 14.8714 16.8764L14.8723 16.0842H11.5677L11.5687 16.8764ZM9.58447 11.1267C9.58447 12.0432 9.92427 12.8794 10.4843 13.5183C10.8255 13.9077 11.3593 14.7211 11.5627 15.4073C11.5635 15.4127 11.5642 15.4181 11.565 15.4234H14.875C14.8758 15.4181 14.8764 15.4129 14.8772 15.4073C15.0807 14.7211 15.6144 13.9077 15.9557 13.5183C16.5157 12.8794 16.8555 12.0432 16.8555 11.1267C16.8555 9.11502 15.2218 7.48503 13.2086 7.49123C11.1015 7.49763 9.58447 9.20508 9.58447 11.1267ZM13.22 9.47423C12.3088 9.47423 11.5675 10.2156 11.5675 11.1267C11.5675 11.3093 11.4196 11.4572 11.237 11.4572C11.0544 11.4572 10.9065 11.3093 10.9065 11.1267C10.9065 9.851 11.9442 8.81323 13.22 8.81323C13.4026 8.81323 13.5505 8.96113 13.5505 9.14373C13.5505 9.32633 13.4026 9.47423 13.22 9.47423Z" fill="#1569E0"/>
</svg>
