<svg width="27" height="27" viewBox="0 0 27 27" fill="none" xmlns="http://www.w3.org/2000/svg">
<rect width="26.4375" height="26.4375" rx="3.07028" fill="white"/>
<path d="M14.5405 14.4305C14.5405 14.6131 14.3926 14.761 14.2101 14.761H12.2272C12.0447 14.761 11.8968 14.6131 11.8968 14.4305V13.4391H7.93115V16.4133C7.93115 16.9421 8.39381 17.4047 8.92256 17.4047H17.5147C18.0435 17.4047 18.5062 16.9421 18.5062 16.4133V13.4391H14.5405V14.4305ZM17.5147 10.1344H15.8624V9.14302C15.8624 8.61427 15.3997 8.15161 14.871 8.15161H11.5663C11.0376 8.15161 10.5749 8.61427 10.5749 9.14302V10.1344H8.92256C8.39381 10.1344 7.93115 10.5971 7.93115 11.1258V12.7782H18.5062V11.1258C18.5062 10.5971 18.0435 10.1344 17.5147 10.1344ZM14.5405 10.1344H11.8968V9.47349H14.5405V10.1344Z" fill="#1569E0"/>
</svg>
