<?xml version="1.0" encoding="UTF-8" standalone="no"?>
<svg
   width="8"
   height="12"
   viewBox="0 0 8 12"
   fill="none"
   version="1.1"
   id="svg4"
   sodipodiDocname="go.svg"
   inkscapeVersion="1.2.2 (b0a84865, 2022-12-01)"
   xmlnsInkscape="http://www.inkscape.org/namespaces/inkscape"
   xmlnsSodipodi="http://sodipodi.sourceforge.net/DTD/sodipodi-0.dtd"
   xmlnsSvg="http://www.w3.org/2000/svg"
   xmlns="http://www.w3.org/2000/svg">
  <defs
     id="defs8" />
  <path
     d="m 1.7087685,11.745112 c 0.1217,4e-4 0.2419,-0.0265 0.3519,-0.0786 0.1099,-0.0522 0.2068,-0.1283 0.2835,-0.2229 L 6.2788689,6.5558121 c 0.1199,-0.1458 0.1854,-0.3286 0.1854,-0.5173 0,-0.1887 -0.0655,-0.3716 -0.1854,-0.5173 L 2.2056685,0.63331206 c -0.1383,-0.1664 -0.337,-0.271 -0.5524,-0.2909 -0.2154,-0.0198 -0.4299,0.0467 -0.5963,0.185 -0.16630004,0.1383 -0.27090004,0.337 -0.29080004,0.55240004 -0.0199,0.2154 0.0467,0.4299 0.1849,0.5962 l 3.64150044,4.3665 -3.5193004,4.3664999 c -0.0996,0.1196 -0.16290004,0.2652 -0.18230004,0.4197 -0.0195,0.1544 0.0057,0.3111 0.0726,0.4517 0.0668,0.1405 0.17250004,0.259 0.30460004,0.3413 0.132,0.0824 0.2849,0.1252 0.4406,0.1234 z"
     fill="#0d0a15"
     id="path2" />
</svg>
